<svg t="1725618077399" class="icon" viewBox="0 0 1097 1024" version="1.1" xmlns="http://www.w3.org/2000/svg" p-id="7422" data-spm-anchor-id="a313x.search_index.0.i19.7f793a81eufuCT" width="600" height="600"><path d="M1097.142465 305.444462a62.902835 62.902835 0 0 0-63.012549-62.610263H900.38825l11.190853-11.044567c31.890274-31.341703 48.05484-69.522261 48.05484-113.444531C959.633943 61.074264 926.792812 0 834.559702 0c-122.879956 0-227.36449 130.303953-278.674186 207.98164l-5.302855 7.972569-5.266284-7.972569C504.100391 145.444519 394.093574 0 263.460477 0c-92.23311 0-125.074241 61.147407-125.074241 118.345101 0 43.812556 16.493708 81.993114 49.115411 113.371388l11.483425 11.11771H63.012549A62.902835 62.902835 0 0 0 0 305.444462v200.2285h69.924546v455.75298A62.902835 62.902835 0 0 0 133.04681 1023.999634h831.999702a62.902835 62.902835 0 0 0 63.012549-62.573692V505.672962H1097.142465V305.444462zM195.07193 117.247958c0-41.691414 21.723421-61.074264 68.388547-61.074264 103.314249 0 202.715356 135.13138 230.765632 176.530223l6.765712 10.057139h-129.499382c-86.710826 0-176.420508-46.957698-176.420509-125.513098z m325.156456 850.577982H126.719955V505.672962h393.508431v462.152978z m0-518.363243H56.685694V299.007893h463.579263v150.454804zM607.085497 232.703917c35.949701-53.065124 130.047954-176.530223 227.547348-176.530223 46.006841 0 68.388547 20.333707 68.388547 62.171407 0 80.822828-89.270825 124.415956-173.275367 124.415955h-129.462811l6.802283-10.057139z m364.28787 735.122023H576.91408V505.672962H971.336796v462.152978z m69.119976-518.363243H576.877508V299.007893H1040.456771v150.454804z" p-id="7423" data-spm-anchor-id="a313x.search_index.0.i15.7f793a81eufuCT" class="selected" fill="#F4C16E"></path><path d="M666.038619 750.555161a62.79312 62.79312 0 0 1-43.739413-17.846851 62.902835 62.902835 0 0 1-19.38285-43.081128 58.989693 58.989693 0 0 1 59.17255-61.257121l68.132547-0.073143c42.422842-0.073143 70.436546 21.211421 71.570261 54.089124a15.579423 15.579423 0 0 1-15.542852 16.164566 16.566851 16.566851 0 0 1-16.639994-15.945138c-0.658285-19.38285-24.393134-22.235421-38.509701-22.198849h-68.169118a27.721133 27.721133 0 0 0-27.867419 28.891419 30.281132 30.281132 0 0 0 30.061704 29.001132h18.541708c8.886854 0 16.27428 7.204569 16.530279 16.091423a15.579423 15.579423 0 0 1-15.615994 16.091423l-18.541708 0.073143z m194.559931-90.185111h-23.039992a16.639994 16.639994 0 0 1-16.566851-16.054852 15.579423 15.579423 0 0 1 15.652566-16.091422h23.039991c32.731417 0 57.34398 25.599991 58.514265 60.927978a58.879979 58.879979 0 0 1-59.135979 61.257121l-72.594259 0.073143c-22.491421 0.036571-40.191986-6.070855-51.748553-17.261708-9.435425-9.106282-14.774852-21.613707-15.250281-36.827416a15.579423 15.579423 0 0 1 15.542852-16.201137 16.566851 16.566851 0 0 1 16.603423 15.981709c0.256 6.619426 0.731428 22.198849 34.011416 22.162277l72.667403-0.036571a27.794276 27.794276 0 0 0 20.114278-8.484568 27.428562 27.428562 0 0 0 7.716569-20.370279c-0.512-14.482281-8.557711-29.110847-25.56342-29.074275z" p-id="7424" data-spm-anchor-id="a313x.search_index.0.i16.7f793a81eufuCT" class="" fill="#6189CC"></path></svg>