<?xml version="1.0" standalone="no"?><!DOCTYPE svg PUBLIC "-//W3C//DTD SVG 1.1//EN" "http://www.w3.org/Graphics/SVG/1.1/DTD/svg11.dtd"><svg class="icon" width="200px" height="200.00px" viewBox="0 0 1024 1024" version="1.1" xmlns="http://www.w3.org/2000/svg"><path d="M382.1568 344.1664c-66.8672 0-121.2928-54.4256-121.2928-121.2928s54.4256-121.2928 121.2928-121.2928 121.2928 54.4256 121.2928 121.2928S449.024 344.1664 382.1568 344.1664z m0-170.9056c-27.3408 0-49.6128 22.272-49.6128 49.6128s22.272 49.6128 49.6128 49.6128 49.6128-22.272 49.6128-49.6128-22.272-49.6128-49.6128-49.6128zM639.232 344.1664c-66.8672 0-121.2928-54.4256-121.2928-121.2928s54.4256-121.2928 121.2928-121.2928 121.2928 54.4256 121.2928 121.2928-54.4256 121.2928-121.2928 121.2928z m0-170.9056c-27.3408 0-49.6128 22.272-49.6128 49.6128s22.272 49.6128 49.6128 49.6128 49.6128-22.272 49.6128-49.6128-22.272-49.6128-49.6128-49.6128zM833.8944 543.6928c-66.8672 0-121.2928-54.4256-121.2928-121.2928s54.4256-121.2928 121.2928-121.2928 121.2928 54.4256 121.2928 121.2928-54.4256 121.2928-121.2928 121.2928z m0-170.8544c-27.3408 0-49.6128 22.272-49.6128 49.6128s22.272 49.6128 49.6128 49.6128 49.6128-22.272 49.6128-49.6128-22.272-49.6128-49.6128-49.6128zM184.4736 543.6928c-66.8672 0-121.2928-54.4256-121.2928-121.2928s54.4256-121.2928 121.2928-121.2928S305.7664 355.5328 305.7664 422.4s-54.3744 121.2928-121.2928 121.2928z m0-170.8544c-27.3408 0-49.6128 22.272-49.6128 49.6128s22.272 49.6128 49.6128 49.6128 49.6128-22.272 49.6128-49.6128-22.2208-49.6128-49.6128-49.6128z" fill="#eeaa1d" /><path d="M683.4176 913.8176c-66.2016 0-126.6688-34.9696-160-90.8288h-20.1728a186.26048 186.26048 0 0 1-160 90.8288c-102.7072 0-186.3168-83.5584-186.3168-186.2656 0-95.8976 72.8064-175.104 166.0416-185.1904 14.6432-88.2176 91.4944-155.7504 183.808-155.7504 91.9552 0 168.6016 67.0208 183.6032 154.7776 99.4816 3.6864 179.2512 85.8112 179.2512 186.1632 0.1024 102.656-83.456 186.2656-186.2144 186.2656z m-225.536-162.5088h110.9504l9.3696 21.6064a114.60096 114.60096 0 0 0 105.2672 69.1712c63.1808 0 114.6368-51.4048 114.6368-114.5856s-51.4048-114.6368-114.6368-114.6368c-6.6048 0-13.312 0.6144-20.0704 1.792l-43.9808 7.7824 1.9456-44.6464c0.0512-1.6384 0.1536-3.2768 0.1536-4.9664 0-63.1808-51.4048-114.6368-114.6368-114.6368-63.1808 0-114.5856 51.4048-114.5856 114.6368 0 0.8192 0.0512 1.6896 0.0512 2.5088l1.28 41.5744-40.2432-3.5328a118.784 118.784 0 0 0-10.0864-0.4608c-63.1808 0-114.6368 51.4048-114.6368 114.6368 0 63.1808 51.4048 114.5856 114.6368 114.5856 45.7728 0 87.0912-27.136 105.2672-69.1712l9.3184-21.6576z" fill="#eeaa1d" /></svg>