<svg t="1725616816629" class="icon" viewBox="0 0 1088 1024" version="1.1" xmlns="http://www.w3.org/2000/svg" p-id="6332" width="800" height="800"><path d="M261.034728 594.092348a386.916887 386.916887 0 1 0 773.833775 0 386.916887 386.916887 0 1 0-773.833775 0Z" fill="#005FBF" opacity=".72" p-id="6333"></path><path d="M646.661893 778.458244c-107.562895 0-194.831999-83.133392-194.831999-185.595432s87.271253-185.595433 194.829849-185.595433 194.829849 83.133392 194.829849 185.595433-87.271253 185.597582-194.829849 185.597582z" fill="#D3D7DA" p-id="6334"></path><path d="M647.951616 823.407239c-137.832692 0-249.445317-102.606059-249.445318-229.314891S510.118923 364.777456 647.951616 364.777456 897.396933 467.381366 897.396933 594.092348 785.784308 823.407239 647.951616 823.407239z" fill="#FFFFFF" p-id="6335"></path><path d="M646.661893 713.892563c-70.347939 0-127.052758-54.099579-127.052758-121.029751s56.704819-121.029752 127.050608-121.029752 127.052758 54.017897 127.052758 121.029752-56.704819 121.029752-127.052758 121.029751z" fill="#FDBF5E" p-id="6336"></path><path d="M904.305549 585.367372C899.705537 459.161532 790.751891 356.280331 657.091452 352.032844V326.087917h-18.286122v25.944927C505.054611 356.280331 396.096666 459.165831 391.597682 585.367372H364.117985v17.267241H391.597682c4.498984 126.296121 112.592814 229.17947 247.115218 233.519388v25.944927h18.286122v-25.944927c133.755018-4.342067 242.710814-106.408593 247.306527-233.429108h27.479697v-17.265091H904.305549v-0.09243zM638.708601 369.297935v51.894153c-93.350148 5.152443-168.508753 76.029168-173.966431 164.267714H409.883804c4.595713-116.805909 105.219898-211.821949 228.826947-216.161867z m-0.859815 448.683869c-122.648354-3.437112-223.371418-98.543432-227.967131-215.254761h54.957245c4.595713 88.143966 79.657589 159.113121 173.007736 163.362758v51.889854z m0.859815-111.561036v42.401792c-83.294608-4.342067-150.125902-67.443913-155.678159-146.097667h45.76367v-17.265091h-45.76367c4.595713-78.651605 71.424857-141.757749 155.678159-146.097667v42.399642h18.286122v-42.399642c83.296757 4.342067 150.128051 67.443913 154.723764 146.097667h-44.903854v17.265091h44.903854c-4.595713 78.651605-71.424857 141.757749-154.723764 146.097667v-42.399642h-18.286122z m18.382851 112.375711v-51.894152c93.350148-4.339918 168.510903-75.216643 173.009886-163.362759h54.957245c-3.733748 115.900954-104.360083 210.916993-227.967131 215.254762z m173.966431-233.429107c-5.455528-88.143966-80.521703-159.113121-173.966431-163.362759v-52.706678c123.607048 4.339918 224.327963 99.446238 228.925825 216.161867h-54.959394v-0.09243zM154.596042 1216.583582h26.542499v26.542498h-26.542499zM-52.215333 1009.004821h26.540349v26.540349h-26.540349zM-52.673185 1216.151524h26.540349v26.540349h-26.540349zM1285.971114-90.475402h26.540349v26.540349h-26.540349z" fill="#193651" p-id="6337"></path></svg>