<svg t="1724779446372" class="icon" viewBox="0 0 1039 1024" version="1.1" xmlns="http://www.w3.org/2000/svg" p-id="2100" width="200" height="200"><path d="M572.8 926.870588c-3.576471-1.694118-3.011765-17.129412 1.317647-35.952941 2.258824-9.035294 4.329412-21.270588 5.082353-27.482353 1.882353-17.882353 3.011765-18.635294 34.258824-20.705882 34.635294-2.447059 34.635294-2.447059 37.458823 16.941176 1.317647 8.282353 4.517647 21.647059 6.964706 29.741177 5.458824 16.941176 6.023529 27.670588 1.694118 31.247059-1.882353 1.505882-11.858824 2.823529-27.670589 3.764705-13.741176 0.752941-32 1.882353-40.847058 2.447059s-17.129412 0.564706-18.258824 0zM376.470588 864.752941c-5.647059-4.705882-14.494118-12.611765-19.764706-17.505882-5.082353-4.705882-12.8-11.105882-16.941176-14.305883-4.141176-3.011765-10.729412-8.847059-14.494118-13.17647-6.211765-6.4-7.152941-8.847059-7.152941-16.376471 0-4.894118 1.505882-11.858824 3.764706-16 1.882353-3.952941 6.4-13.929412 9.976471-22.211764l6.211764-15.058824 9.411765 0.188235c13.364706 0 49.882353 16 68.141176 29.741177 14.682353 11.294118 15.058824 14.682353 3.388236 37.647059-7.152941 14.117647-10.164706 23.529412-15.247059 49.694117-1.129412 5.647059-1.694118 6.023529-9.035294 6.02353-6.588235 0-9.6-1.505882-18.258824-8.658824zM809.411765 805.270588c-9.788235-10.164706-21.270588-20.894118-25.788236-23.717647-7.529412-4.894118-10.917647-11.670588-5.647058-11.670588s29.552941-29.929412 42.541176-52.329412c10.729412-18.447059 22.4-43.670588 24.658824-53.458823 0.941176-4.517647 4.517647-18.635294 7.905882-31.62353 5.458824-21.835294 6.023529-25.976471 6.023529-55.529412 0.188235-37.647059-2.823529-57.6-14.305882-92.235294-14.682353-44.611765-25.035294-61.552941-59.294118-97.129411-19.2-19.764706-19.388235-20.141176-19.388235-28.988236 0-7.529412 1.694118-12.235294 10.164706-27.105882 5.647059-9.976471 12.611765-22.964706 15.435294-28.8l5.270588-10.917647h9.22353c8.282353 0 9.976471 0.752941 18.823529 9.035294 5.458824 5.082353 12.988235 12.047059 16.941177 15.435294 3.764706 3.388235 10.541176 10.917647 15.058823 16.752941 4.329412 5.835294 8.470588 10.917647 9.035294 11.482353 2.447059 1.882353 31.247059 48.188235 39.717647 64 11.482353 21.082353 18.447059 39.152941 26.729412 68.705883 8.282353 30.117647 10.541176 49.882353 10.541177 96.941176 0 31.811765-0.752941 40.282353-4.894118 62.117647-8.470588 44.611765-24.094118 85.082353-46.494118 120.282353-9.223529 14.682353-34.823529 49.505882-47.435294 64.752941-1.882353 2.070588-5.270588 3.2-9.788235 3.011765-6.588235-0.188235-8.847059-1.882353-25.035294-19.011765zM316.8 348.611765c-6.023529-0.564706-6.211765-0.941176-6.211765-8.470589 0-7.341176 0.941176-9.035294 10.917647-18.447058 25.976471-25.035294 48-41.223529 56.094118-41.22353 7.152941 0 9.976471 3.2 24.282353 26.352941 9.223529 15.058824 11.105882 19.576471 11.858823 28.611765 0.752941 10.164706 0.564706 10.729412-3.57647 11.670588-5.270588 1.129412-84.705882 2.447059-93.364706 1.505883zM561.317647 236.047059c-9.035294-7.905882-9.788235-9.223529-9.788235-16.752941 0-9.223529 0.564706-9.411765 20.894117-11.670589 8.847059-0.941176 11.858824-0.564706 13.176471 1.505883 1.882353 3.011765 2.258824 21.082353 0.564706 29.741176-1.129412 5.270588-1.882353 5.835294-8.094118 5.835294-5.458824 0-8.847059-1.694118-16.752941-8.658823z" fill="#0071da" p-id="2101" data-spm-anchor-id="a313x.search_index.0.i5.42d53a81kQ3g10" class="selected"></path><path d="M553.411765 958.117647c-56.282353-7.905882-97.317647-16.564706-109.741177-22.776471-13.552941-6.964706-78.494118-48.941176-95.435294-61.741176-29.552941-22.4-62.305882-57.976471-82.447059-89.6-3.2-5.082353-9.411765-13.176471-13.741176-17.882353-7.152941-7.717647-7.905882-8.094118-9.411765-4.705882-0.752941 2.070588-1.505882 7.717647-1.505882 12.423529-0.376471 15.811765-13.929412 33.694118-25.6 33.694118-12.047059 0-36.141176-26.164706-64-69.835294-10.541176-16.188235-46.117647-86.588235-52.517647-103.341177-12.423529-33.505882-21.647059-76.235294-24.847059-115.764706-0.564706-8.282353-3.576471-29.741176-6.588235-47.623529-6.588235-38.964706-6.588235-39.717647-1.505883-49.882353 12.988235-25.223529 32.941176-40.094118 59.670588-44.423529 59.294118-9.6 107.105882-18.447059 134.964706-25.035295 5.647059-1.317647 9.976471-4.517647 17.882353-13.17647 42.541176-46.870588 76.611765-76.047059 116.329412-100.141177 22.588235-13.552941 24.847059-16.188235 28.423529-32.752941 5.835294-28.047059 17.882353-33.505882 42.164706-18.823529l12.8 7.717647 11.105883-10.917647 10.917647-10.917647 16.752941 7.341176c15.247059 6.776471 18.070588 7.341176 37.270588 7.905883 11.294118 0.376471 23.529412-0.188235 27.294118-1.317648 7.905882-2.258824 11.294118-8.470588 24.470588-45.364705 11.670588-32.376471 19.952941-48.376471 29.552941-57.6 12.423529-12.047059 18.258824-11.670588 32.188236 2.635294 6.588235 6.588235 13.552941 16.376471 18.070588 25.223529 6.211765 12.423529 7.717647 14.305882 10.541176 12.8 3.388235-1.882353 10.164706-12.235294 18.82353-28.988235 5.647059-10.729412 19.576471-28.423529 26.729411-33.694118 4.517647-3.388235 5.647059-3.576471 10.917647-1.317647 7.717647 3.2 19.764706 18.447059 26.917648 33.694118 9.6 21.458824 23.717647 95.623529 24.094117 126.870588 0.188235 30.494118 1.882353 33.505882 28.988235 54.964706 38.023529 29.929412 72.094118 72.658824 98.635295 123.670588 14.682353 28.047059 21.458824 46.117647 31.058823 82.82353 8.470588 31.811765 11.105882 53.835294 11.105882 88.094117 0 45.552941-6.211765 81.129412-22.4 129.882353-16.564706 49.694118-51.011765 102.211765-99.952941 152.094118-20.141176 20.517647-25.6 27.294118-33.505882 41.97647-12.047059 22.4-22.776471 33.882353-37.270588 39.152942-9.035294 3.2-18.070588 4.329412-49.882353 5.835294-21.458824 1.129412-41.788235 2.447059-44.988236 3.011764-3.388235 0.564706-6.588235 0.941176-7.152941 0.941177-1.129412 0-15.811765 4.894118-20.705882 7.152941-26.352941 11.105882-61.741176 13.741176-104.470588 7.717647z m-41.035294-41.788235c1.694118-3.388235 3.576471-8.470588 4.141176-11.105883 1.317647-6.211765 5.458824-7.341176 17.317647-4.894117 17.882353 3.576471 22.964706-0.941176 24.847059-22.588236 2.070588-26.917647-9.411765-62.305882-24.282353-74.352941s-53.835294-12.047059-77.929412 0c-21.270588 10.541176-25.035294 15.811765-27.670588 38.776471-3.011765 27.670588 4.517647 56.847059 17.505882 67.952941 8.470588 6.964706 13.929412 7.717647 23.529412 3.2l8.094118-3.952941 5.458823 4.517647c6.776471 5.835294 12.8 8.282353 20.141177 8.282353 4.705882 0.188235 6.4-0.941176 8.847059-5.835294z m112.188235 2.447059c34.823529-1.882353 34.635294-1.694118 27.858823-23.152942-2.635294-8.470588-5.835294-22.211765-7.152941-30.494117-1.694118-11.670588-3.011765-15.058824-6.023529-16.564706-6.211765-2.635294-45.929412 0.941176-49.505883 4.705882-1.694118 1.505882-3.952941 9.788235-5.270588 18.635294-1.317647 8.470588-3.952941 22.588235-5.835294 31.247059-4.141176 18.447059-3.2 20.141176 10.541177 18.258824 4.705882-0.752941 20.517647-1.882353 35.388235-2.635294z m116.141176-5.835295c8.282353-2.070588 19.2-3.764706 24.094118-3.764705 13.929412 0 19.011765-3.764706 26.541176-19.388236 11.105882-22.964706 13.741176-57.223529 5.458824-71.341176-5.082353-8.658824-18.823529-18.635294-34.258824-24.658824-15.811765-6.023529-38.964706-6.964706-53.458823-2.070588-18.258824 6.211765-31.623529 23.341176-36.894118 47.435294-4.894118 22.964706-0.941176 58.729412 6.4 58.729412 1.505882 0 6.776471-0.941176 11.858824-2.070588 13.176471-3.2 18.447059-1.317647 23.152941 8.282353 4.894118 9.788235 7.152941 12.611765 9.976471 12.611764 1.129412 0 8.847059-1.694118 17.129411-3.764706z m-342.588235-51.2c5.082353-26.164706 7.905882-35.576471 15.435294-50.070588l8.282353-16.37647-6.211765-5.082353c-10.917647-9.223529-23.529412-16.564706-39.529411-23.341177-23.529412-9.976471-30.305882-12.235294-31.811765-10.729412-0.752941 0.941176-4.141176 7.905882-7.341177 15.62353s-7.529412 17.317647-9.411764 21.270588c-2.070588 4.141176-3.764706 8.658824-3.764706 10.352941 0 3.952941 11.294118 16.376471 21.647059 23.905883 4.141176 3.2 11.858824 9.6 16.941176 14.305882 14.870588 13.929412 29.929412 26.164706 32.376471 26.164706 1.129412 0 2.635294-2.823529 3.388235-6.02353z m236.047059-23.717647c9.035294-1.505882 9.976471-2.635294 23.341176-31.811764 11.105882-24.282353 26.917647-36.141176 55.152942-41.035294 9.223529-1.505882 18.258824-3.388235 20.141176-3.952942 7.341176-2.258824 0.752941-15.247059-6.964706-13.17647-4.141176 1.129412-21.270588 4.517647-48.188235 9.6-22.023529 4.141176-75.105882 5.835294-99.2 3.011765-10.729412-1.317647-25.411765-4.329412-32.941177-6.964706-18.635294-6.211765-25.035294-6.023529-31.811764 1.505882-3.2 3.2-5.458824 7.152941-5.082353 8.658824s6.776471 5.082353 14.305882 7.905882c28.611765 11.105882 37.082353 18.635294 51.388235 46.117647 5.270588 10.352941 10.729412 19.388235 11.858824 20.141176 2.635294 1.694118 36.705882 1.694118 48 0z m204.423529-22.4c12.611765-15.247059 38.211765-50.070588 47.435294-64.752941 22.4-35.2 38.023529-75.670588 46.494118-120.282353 4.141176-20.894118 4.894118-30.682353 4.894118-56.470588 0-41.411765-2.447059-61.929412-10.541177-91.294118-8.282353-29.552941-15.247059-47.623529-26.729412-68.705882-8.470588-15.811765-37.270588-62.117647-39.717647-64-0.564706-0.564706-4.705882-5.647059-9.035294-11.482353-4.517647-5.835294-11.294118-13.364706-15.058823-16.752941-3.952941-3.388235-11.482353-10.352941-16.941177-15.435294-5.270588-4.894118-11.294118-9.035294-13.17647-9.035294-2.447059 0-5.270588 3.388235-8.847059 10.917647-2.823529 5.835294-9.788235 18.823529-15.435294 28.8-5.647059 9.788235-10.164706 19.388235-10.164706 21.458823 0 1.882353 8.658824 12.423529 19.388235 23.341177 34.258824 35.576471 44.611765 52.517647 59.294118 97.129412 11.670588 35.576471 14.494118 54.211765 14.494117 96.941176 0 24.847059-0.752941 40.094118-2.635294 47.058824-3.576471 14.494118-13.929412 40.847059-14.682353 38.211764-0.564706-1.317647 0.564706-10.729412 2.447059-20.705882 3.764706-21.082353 4.329412-65.882353 0.941177-85.270588-5.270588-32-22.776471-72.282353-42.917647-98.82353-12.235294-16-44.423529-49.882353-47.62353-49.882353-6.023529 0-23.717647 80-32.188235 145.882353-3.2 24.470588-3.764706 37.270588-3.011765 67.764706 0.564706 34.258824 1.317647 39.905882 6.776471 62.682353 10.917647 45.741176 26.352941 78.870588 39.152941 84.329412 3.388235 1.505882 9.411765 3.952941 13.364706 5.647059s15.623529 11.858824 27.670588 24.282353c11.482353 11.670588 21.270588 21.270588 22.211765 21.458823 0.752941 0 2.635294-1.317647 4.141176-3.011765z m-369.882353-45.364705c11.294118-8.282353 41.6-40.470588 45.552942-48.376471 3.2-6.023529 3.764706-9.6 2.823529-20.705882-2.258824-29.364706-11.482353-47.435294-26.541177-52.517647-6.4-2.258824-9.035294-2.070588-19.011764 0.564705-22.588235 6.4-42.541176 24.094118-54.02353 48.376471-6.776471 14.494118-8.470588 27.670588-4.705882 36.517647 3.952941 9.035294 22.4 30.870588 31.811765 37.647059 8.847059 6.4 13.552941 6.211765 24.094117-1.505882z m-160.564706-0.752942c0.752941-1.317647 1.882353-19.576471 2.447059-40.470588 0.752941-26.729412 1.694118-38.776471 3.2-40.282353 1.882353-1.882353 4.517647-0.188235 12.235294 8.847059 19.764706 22.023529 44.611765 42.164706 52.517647 42.164706 2.258824 0 3.576471-4.141176 6.211765-19.2 6.211765-39.152941 28.8-70.964706 61.176471-86.776471 13.741176-6.588235 18.258824-7.717647 31.435294-8.470588 18.258824-0.941176 25.411765 1.694118 44.611765 16.376471 25.035294 19.2 44.611765 24.658824 89.411764 24.658823 30.117647 0 56.282353-3.2 75.858824-9.223529l12.611765-3.952941 0.941176-51.388236c0.752941-43.670588 1.694118-55.529412 5.835294-79.811764 8.282353-48.188235 15.623529-79.435294 30.117647-127.62353 10.164706-33.317647 13.741176-42.729412 26.917647-69.270588 16.564706-33.129412 18.070588-41.223529 16.941177-83.2-1.694118-58.917647-15.247059-131.576471-27.482353-147.388235l-3.388236-4.517647-5.082352 6.023529c-4.894118 6.023529-12.611765 18.823529-48.564706 80.941176-30.305882 52.329412-36.894118 68.141176-38.02353 91.482353-0.376471 7.152941-0.752941 14.117647-0.941176 15.62353-0.188235 2.070588-2.823529 2.447059-12.8 1.505882-34.635294-2.635294-90.917647-30.305882-108.8-53.270588-9.788235-12.611765-22.023529-25.223529-24.658824-25.223529-3.952941 0-4.894118 6.588235-2.823529 18.258823 4.705882 24.847059 1.882353 26.729412-16.564706 10.352941-14.305882-12.611765-31.623529-25.6-36.329412-27.294117-2.258824-0.752941-3.952941 0-5.270588 2.447058-5.082353 9.411765 0 27.670588 15.247059 54.776471 17.129412 30.494118 15.435294 32.564706-16.752941 19.764706-36.141176-14.117647-47.435294-15.811765-44.611765-6.4 2.823529 8.847059 19.011765 33.882353 27.858823 42.917647 12.047059 12.423529 22.776471 19.764706 43.670589 30.117647 21.835294 10.917647 22.211765 13.364706 3.57647 22.588235-7.529412 3.576471-17.505882 10.164706-22.211764 14.682353-4.894118 4.517647-9.6 7.529412-10.541177 6.964706-2.635294-1.694118 2.823529-11.858824 10.729412-19.952941 5.082353-5.270588 6.023529-7.341176 3.952941-8.470588-3.764706-2.635294-76.8-3.2-103.152941-0.941177-91.105882 7.905882-148.705882 17.129412-148.705883 23.905883 0 1.317647 2.447059 5.270588 5.270589 8.658823 6.588235 7.717647 16.188235 22.023529 18.070588 26.729412 4.705882 12.988235-46.305882 59.294118-80.564706 73.035294-13.741176 5.458824-27.294118 9.035294-35.388235 9.035294-15.811765 0-19.764706 5.082353-16.752941 21.647059 11.482353 64.376471 26.917647 109.929412 55.341176 162.635294 19.011765 35.388235 33.694118 56.847059 46.494118 68.329412l10.352941 9.223529 1.317647-12.8c0.752941-6.964706 0.752941-24.658824 0.188235-39.341176-1.505882-37.647059 0.752941-38.023529 27.670588-5.270588 18.070588 22.023529 33.694118 37.835294 51.2 51.57647 9.788235 7.905882 13.552941 9.035294 16 5.270588z m383.62353-35.57647c20.141176-2.823529 27.294118-5.082353 27.294118-8.847059 0-1.694118-1.317647-7.152941-2.82353-12.047059-1.317647-4.894118-3.576471-15.435294-4.705882-23.341176-0.941176-8.094118-2.258824-15.058824-2.635294-15.435294-0.564706-0.376471-10.917647 1.882353-23.152942 5.082352-47.623529 12.423529-95.623529 11.482353-145.882352-2.823529-2.823529-0.941176-2.823529 0.376471 0.752941 12.611765 3.388235 12.423529 3.576471 14.870588 1.505882 27.482353-1.882353 10.541176-1.882353 14.494118-0.376471 16 4.894118 4.894118 117.458824 5.835294 150.02353 1.317647zM153.223529 422.588235c5.270588-1.505882 10.164706-3.952941 10.917647-5.270588 5.082353-7.905882-2.823529-22.023529-14.682352-25.788235-10.729412-3.576471-32.188235-1.694118-43.105883 3.764706-9.223529 4.517647-18.823529 15.623529-16.752941 19.011764 1.505882 2.447059 12.047059 7.717647 18.635294 9.411765 9.976471 2.447059 35.388235 1.694118 44.988235-1.129412z m251.294118-81.129411c3.764706-0.752941 4.141176-1.694118 3.388235-6.4-1.317647-5.835294-20.329412-38.023529-26.541176-44.611765l-3.952941-4.329412-8.658824 6.211765c-20.517647 14.494118-52.517647 43.670588-52.517647 47.811764 0 1.129412 2.823529 2.447059 6.211765 2.82353 9.223529 0.941176 76.988235-0.376471 82.070588-1.505882z m225.505882-87.717648c2.258824-2.447059 7.152941-11.858824 10.917647-21.270588 3.764706-9.223529 13.741176-30.117647 21.835295-46.117647s14.870588-30.305882 14.870588-31.811765c0-3.576471-12.988235-35.011765-18.447059-44.8-2.447059-4.517647-5.270588-8.094118-6.211765-8.094117-4.517647 0-9.6 9.6-23.905882 45.929412-13.741176 34.070588-28.611765 83.011765-28.611765 93.364705 0 3.764706 8.658824 12.235294 15.058824 14.870589 7.341176 2.823529 10.352941 2.447059 14.494117-2.070589z m-49.505882-20.517647c2.070588-10.352941 1.317647-16.752941-1.694118-16.752941-1.505882 0-2.823529-0.752941-2.823529-1.694117 0-0.752941-3.576471-0.941176-7.905882 0-4.517647 0.752941-8.658824 1.505882-9.411765 1.694117-0.941176 0-1.505882 1.129412-1.505882 2.635294 0 2.635294 18.258824 19.952941 20.894117 19.952942 0.752941 0 1.694118-2.635294 2.447059-5.835295z" fill="#060909" p-id="2102"></path><path d="M565.270588 478.870588c-0.564706-1.505882-0.376471-7.717647 0.564706-13.552941 0.752941-5.835294 1.129412-14.494118 0.941177-19.2-0.376471-4.705882-0.752941-11.858824-0.941177-16l-0.188235-7.529412 9.035294 0.376471c18.447059 1.129412 35.2 15.247059 35.2 29.741176 0 6.4-9.976471 20.894118-17.505882 25.6-7.717647 4.517647-25.411765 5.082353-27.105883 0.564706zM493.364706 465.129412c-1.317647-0.941176-3.576471-7.529412-4.894118-14.494118-1.317647-7.152941-3.011765-15.623529-3.764706-18.823529-1.505882-6.588235 1.882353-11.294118 9.6-13.176471 6.588235-1.694118 12.988235 0.376471 20.329412 6.776471 12.047059 10.541176 12.047059 22.776471 0 34.823529-6.588235 6.776471-15.247059 8.658824-21.270588 4.894118zM636.235294 412.8c-36.894118-33.129412-42.541176-38.964706-39.152941-39.717647 4.705882-0.941176 25.976471 9.6 37.270588 18.635294 14.117647 11.105882 29.929412 37.647059 22.4 37.458824-1.505882-0.188235-10.729412-7.341176-20.517647-16.376471zM713.223529 295.341176c-3.388235-3.388235-3.764706-5.270588-2.823529-11.858823 1.882353-11.105882 6.588235-24.094118 10.164706-28.047059 12.611765-14.117647 15.811765-2.258824 8.658823 32.188235-0.941176 4.517647-7.152941 11.670588-10.164705 11.670589-0.941176 0-3.576471-1.694118-5.835295-3.952942z" fill="#060909" p-id="2103"></path></svg>