<svg width="16" height="18" viewBox="0 0 16 18" fill="none" xmlns="http://www.w3.org/2000/svg">
<g id="Frame">
<path id="Vector" d="M8.27871 16.0183C9.80912 16.032 11.3042 15.5585 12.5477 14.6663C13.6267 13.9003 14.4437 12.9123 14.9587 11.6903C15.0157 11.5553 15.0157 11.3153 14.9327 11.2223C14.8327 11.1113 14.6177 11.0923 14.4467 11.0603C14.3767 11.0473 14.2917 11.1003 14.2167 11.1303C12.6557 11.7603 11.0967 11.7423 9.54671 11.1003C7.22371 10.1403 5.77271 7.7223 6.01171 5.2273C6.08881 4.37206 6.3626 3.54622 6.81171 2.8143C6.94971 2.5893 7.02671 2.3683 6.84571 2.1373C6.67171 1.9123 6.44271 1.9823 6.22971 2.0543C5.89271 2.1673 5.55171 2.2763 5.22771 2.4213C3.6985 3.09844 2.45722 4.29338 1.72242 5.79572C0.987622 7.29807 0.806415 9.01149 1.21071 10.6343C1.99671 13.7793 4.93371 16.0153 8.27871 16.0183Z" fill="#ADD900"/>
<path id="Vector_2" d="M10.604 8.61071C10.651 8.57764 10.759 8.52352 10.841 8.44035C10.991 8.29003 11.123 8.11966 11.265 7.96032C11.758 7.40915 12.356 7.24279 13.06 7.46827C13.273 7.53642 13.481 7.6206 13.696 7.68373C13.883 7.73985 14.069 7.72983 14.178 7.53542C14.286 7.342 14.247 7.16462 14.075 7.01731C13.9052 6.87112 13.7371 6.72279 13.571 6.57236C13.031 6.08532 12.873 5.49205 13.091 4.79857C13.161 4.5761 13.245 4.35763 13.313 4.13315C13.373 3.93874 13.341 3.76236 13.148 3.65914C12.961 3.55793 12.795 3.60403 12.656 3.76236C12.496 3.94676 12.339 4.13516 12.17 4.31254C11.708 4.79557 11.158 4.97395 10.506 4.77553C10.2727 4.7037 10.041 4.62685 9.81101 4.54503C9.60501 4.47188 9.42001 4.49192 9.30101 4.68734C9.17401 4.89678 9.25201 5.07617 9.42601 5.22649C9.61101 5.38683 9.80201 5.54116 9.97601 5.71253C10.441 6.17551 10.608 6.72168 10.406 7.36104C10.329 7.60356 10.238 7.84207 10.165 8.08559C10.078 8.3732 10.255 8.61973 10.604 8.61071Z" fill="#ADD900"/>
</g>
</svg>