<?xml version="1.0" standalone="no"?><!DOCTYPE svg PUBLIC "-//W3C//DTD SVG 1.1//EN" "http://www.w3.org/Graphics/SVG/1.1/DTD/svg11.dtd"><svg class="icon" width="200px" height="102.97px" viewBox="0 0 1989 1024" version="1.1" xmlns="http://www.w3.org/2000/svg"><path d="M1911.948 246.9c0 138.917-388.736 251.543-868.235 251.543S175.478 385.817 175.478 246.9 564.187 10.612 1043.713 10.612s868.235 97.29 868.235 236.288z" fill="#FFF6B3" /><path d="M175.478 254.939c-18.28 108.406-84.555 432.46-87.553 506.428a62.693 62.693 0 0 0-0.77 9.445c0 1.486 0 2.972 0.212 4.431v1.353a30.909 30.909 0 0 0 2.15 11.223c33.641 126.023 438.19 225.515 932.36 225.515 493.19 0 930.266-81.291 965.34-206.943a59.536 59.536 0 0 0 2.494-11.992v-5.307c0-0.212-0.212-5.783-0.53-8.41-2.972-72.536-58.37-430.496-77.154-531.925" fill="#FFF6B3" /><path d="M360.454 221.218a683.233 181.845 0 1 0 1366.465 0 683.233 181.845 0 1 0-1366.465 0z" fill="#FFFFFF" /><path d="M967.223 509.055c-232.891 0-451.96-26.319-616.878-74.102C181.421 386.03 88.375 319.224 88.375 246.9s90.658-134.991 262.182-180.413C511.867 23.666 730.883 0.16 967.223 0.16s455.356 23.586 616.666 66.328c171.524 45.501 262.182 107.93 262.182 180.413s-93.019 139.13-261.943 188.053c-164.892 47.783-384.014 74.102-616.905 74.102z m0-487.83c-480.905 0-857.622 99.12-857.622 225.675 0 61.154 89.887 122.256 246.74 167.677 162.955 47.252 379.954 73.253 610.882 73.253s447.927-26 610.988-73.253c156.747-45.421 246.74-106.523 246.74-167.677-0.105-126.554-376.822-225.675-857.728-225.675z" fill="#333333" /><path d="M967.223 413.675c-183.384 0-355.943-19.023-485.84-53.62-94.902-25.257-208.005-69.83-208.005-138.837S386.481 107.638 481.383 82.38c130.003-34.491 302.456-53.62 485.84-53.62s355.943 19.05 485.867 53.62c94.876 25.257 207.978 69.856 207.978 138.838s-113.102 113.58-207.978 138.731c-129.924 34.703-302.456 53.726-485.867 53.726z m0-363.69c-402.346 0-672.62 88.535-672.62 171.233S564.93 392.45 967.223 392.45s672.62-88.535 672.62-171.232S1369.57 49.985 967.223 49.985z" fill="#333333" /><path d="M945.335 1024c-239.047 0-466.95-23.374-641.393-65.824-124.856-30.352-278.26-83.971-301.077-167.147A41.123 41.123 0 0 1 0.212 776.49v-1.167c0-1.54-0.212-3.078-0.212-4.617a72.138 72.138 0 0 1 0.822-10.453c2.309-52.479 34.491-221.775 60.12-357.88 11.754-62.083 21.889-115.73 27.566-149.291a10.612 10.612 0 0 1 20.933 3.528c-5.704 33.774-15.918 87.553-27.645 149.716-25.735 135.92-57.732 305.11-59.802 355.36v1.114a53.38 53.38 0 0 0-0.663 7.96c0 1.087 0 2.201 0.16 3.29v2.679a19.102 19.102 0 0 0 1.405 7.137l0.372 1.167c15.07 56.405 119.205 111.962 285.741 152.475 172.958 42.052 398.95 65.214 636.379 65.214 244.538 0 476.21-19.952 652.324-56.14 179.696-36.905 287.307-87.712 302.721-143.004l0.451-1.3a48.022 48.022 0 0 0 1.672-8.463v-4.643c0-0.663-0.24-5.306-0.478-7.11v-0.876c-2.918-72.218-58.687-431.69-76.94-530.413a10.615 10.615 0 1 1 20.88-3.847c18.306 98.909 74.128 459.15 77.285 533.013 0.345 3.184 0.584 8.676 0.584 9.233v6.42a67.098 67.098 0 0 1-2.998 14.248c-23.427 80.734-186.276 130.321-318.959 157.675-177.388 36.4-410.677 56.485-656.595 56.485z" fill="#333333" /><path d="M724.94 589.55c89.994 10.03 104.825 98.3 104.825 152.343a217.37 217.37 0 0 1-4.245 43.034c-12.788 63.197-27.513 101.747-100.58 109.309-56.193 5.81-159.692-70.998-46.191-147.461a5.81 5.81 0 0 0 0.265-10.082c-116.286-84.9-10.24-153.43 45.926-147.142z m554.556 0c-89.994 10.03-104.825 98.3-104.825 152.343a217.37 217.37 0 0 0 4.245 43.034c12.788 63.197 27.513 101.747 100.58 109.309 56.193 5.81 159.691-70.998 46.19-147.461a5.784 5.784 0 0 1-0.265-10.002c116.287-84.98 10.242-153.51-45.925-147.222z" fill="#F7DA5E" /><path d="M815.942 658.293c214.08 115.305 372.552 0 372.552 0l3.449 175.345" fill="#F7DA5E" /><path d="M815.942 658.293s15.468 110.29-1.672 175.345c0 0 163.592-115.304 377.673 0" fill="#F7DA5E" /><path d="M693.341 899.86c-34.12 0-79.594-24.7-92.727-60.597-6.898-19.05-9.63-56.936 49.693-96.892 0.504-0.345 0.637-0.663 0.637-0.717a1.38 1.38 0 0 0-0.53-0.61c-57.839-42.211-59.404-78.267-50.543-101.084 14.274-36.693 64.684-59.642 100.156-55.715 41.6 4.643 71.98 25.708 90.339 62.587 15.919 31.837 19.208 69.3 19.208 95.035a222.518 222.518 0 0 1-4.35 44.095C792.806 847.328 778.001 891.423 700 899.489a60.731 60.731 0 0 1-6.659 0.371z m-1.539-305.427c-30.51 0-70.573 19.898-82.034 49.348-10.772 27.778 5.439 58.368 46.907 88.694a11.329 11.329 0 0 1 4.882 9.392 11.461 11.461 0 0 1-5.307 9.312c-40.088 27.009-55.874 56.22-45.633 84.45 12.098 33.349 58.368 56.458 88.322 53.327 71.13-7.35 83.68-44.6 95.91-105.064A211.507 211.507 0 0 0 798.963 742c0-50.754-13-137.352-100.102-147.089a67.867 67.867 0 0 0-7.058-0.477zM1260.05 899.86c-2.282 0-4.51 0-6.66-0.345-78.002-7.959-92.86-52.16-105.25-113.527a224.507 224.507 0 0 1-4.27-43.989c0-25.735 3.342-63.09 19.234-95.035 18.333-36.878 48.712-57.944 90.207-62.587 35.498-3.98 85.908 18.997 100.155 55.716 8.861 22.817 7.323 58.873-50.41 101.084-0.45 0.318-0.557 0.584-0.557 0.61s0 0.372 0.664 0.716c59.297 39.957 56.564 77.843 49.666 96.893-13.027 35.764-58.607 60.438-92.78 60.464z m-6.13-310.415l0.611 5.306c-87.102 9.737-100.129 96.335-100.129 147.09a213.523 213.523 0 0 0 4.139 41.998c12.23 60.465 24.807 97.715 95.937 105.064 30.086 3.13 76.198-19.978 88.296-53.328 10.241-28.23-5.519-57.44-45.634-84.449a11.594 11.594 0 0 1-5.306-9.312 11.355 11.355 0 0 1 4.908-9.392c41.469-30.246 57.68-61.022 46.88-88.694-12.363-31.838-58.023-52.426-89.064-48.977z"  /><path d="M1163.952 838.308c-109.176-58.793-204.635-55.716-265.498-42.716-65.85 14.009-106.125 42.08-106.602 42.45l-6.13-8.675c1.725-1.194 42.45-29.61 110.53-44.095 62.587-13.266 160.726-16.556 272.715 43.75zM982.717 714.725c-54.627 0-121.433-12.257-194.792-51.762l5.04-9.34c109.15 58.794 203.23 55.716 262.926 42.716 64.524-14.008 103.604-42.052 104.002-42.45l6.235 8.596c-1.645 1.194-41.283 29.636-108.009 44.122a354.51 354.51 0 0 1-75.402 8.118z"  /></svg>