<svg width="17" height="18" viewBox="0 0 17 18" fill="none" xmlns="http://www.w3.org/2000/svg">
<g id="Group 1626">
<path id="Rectangle 1200" d="M8.13887 2.16109C9.8087 0.305116 12.6669 0.154212 14.5229 1.82404L15.003 2.25596C16.8589 3.92579 17.0099 6.78401 15.34 8.63999L8.86113 15.8411C7.1913 17.6971 4.33308 17.848 2.4771 16.1782L1.99703 15.7463C0.141053 14.0764 -0.00985035 11.2182 1.65997 9.36225L8.13887 2.16109Z" fill="#51D38E"/>
<path id="Rectangle 1200 (Stroke)" fill-rule="evenodd" clip-rule="evenodd" d="M14.571 2.73604L14.091 2.30411C12.5001 0.872835 10.0502 1.00218 8.61895 2.59302L2.14005 9.79417C0.708773 11.385 0.838119 13.8349 2.42895 15.2662L2.90903 15.6981C4.49987 17.1294 6.94977 17.0001 8.38105 15.4092L14.8599 8.20806C16.2912 6.61723 16.1619 4.16732 14.571 2.73604ZM14.5229 1.82404C12.6669 0.154212 9.8087 0.305116 8.13887 2.16109L1.65997 9.36225C-0.00985058 11.2182 0.141053 14.0764 1.99703 15.7463L2.4771 16.1782C4.33308 17.848 7.1913 17.6971 8.86113 15.8411L15.34 8.63999C17.0099 6.78401 16.8589 3.92579 15.003 2.25596L14.5229 1.82404Z" fill="black"/>
<path id="Rectangle 1201" d="M8.13803 2.16109C9.80785 0.305116 12.6661 0.154212 14.5221 1.82404L15.0021 2.25596C16.8581 3.92579 17.009 6.78401 15.3392 8.63999L11.8838 12.4806L4.68262 6.00171L8.13803 2.16109Z" fill="#FFFEFF"/>
<path id="Rectangle 1201 (Stroke)" fill-rule="evenodd" clip-rule="evenodd" d="M14.5702 2.73604L14.0901 2.30411C12.4993 0.872835 10.0494 1.00218 8.61811 2.59302L5.59462 5.95356L11.8356 11.5686L14.8591 8.20806C16.2904 6.61723 16.161 4.16732 14.5702 2.73604ZM14.5221 1.82404C12.6661 0.154212 9.80785 0.305116 8.13803 2.16109L4.68262 6.00171L11.8838 12.4806L15.3392 8.63999C17.009 6.78401 16.8581 3.92579 15.0021 2.25596L14.5221 1.82404Z" fill="black"/>
<path id="Vector 114 (Stroke)" fill-rule="evenodd" clip-rule="evenodd" d="M2.539 14.046C1.44971 12.308 2.11059 10.7928 2.62 10.2266L3.10007 10.6585C2.74562 11.0525 2.17814 12.2542 3.0862 13.7031L2.539 14.046Z" fill="#B9FFDA"/>
</g>
</svg>