<svg width="30" height="30" viewBox="0 0 30 30" fill="none" xmlns="http://www.w3.org/2000/svg">
<g clip-path="url(#clip0_772_5975)">
<path d="M29.9728 14.9957C29.9728 23.239 23.2907 29.9211 15.0474 29.9211C6.80446 29.9211 0.12207 23.239 0.12207 14.9957C0.12207 6.75255 6.80446 0.0703125 15.0474 0.0703125C23.2907 0.0703125 29.9728 6.75255 29.9728 14.9957Z" fill="#1BA27A"/>
<path d="M22.0528 7.59375H7.91992V11.0057H13.2804V16.0206H16.6923V11.0057H22.0528V7.59375Z" fill="white"/>
<path d="M15.0188 16.5581C10.5844 16.5581 6.98935 15.8563 6.98935 14.9905C6.98935 14.1248 10.5843 13.4229 15.0188 13.4229C19.4531 13.4229 23.048 14.1248 23.048 14.9905C23.048 15.8563 19.4531 16.5581 15.0188 16.5581ZM24.0344 15.2518C24.0344 14.1354 19.998 13.2305 15.0188 13.2305C10.0396 13.2305 6.00293 14.1354 6.00293 15.2518C6.00293 16.2349 9.13293 17.0541 13.2805 17.2355V24.4346H16.6922V17.2384C20.8717 17.0626 24.0344 16.24 24.0344 15.2518Z" fill="white"/>
</g>
<defs>
<clipPath id="clip0_772_5975">
<rect width="30" height="30" fill="white"/>
</clipPath>
</defs>
</svg>